<svg width="181" height="202" viewBox="0 0 181 202" fill="none" xmlns="http://www.w3.org/2000/svg">
<g clip-path="url(#clip0)">
<path d="M87.2433 161.143L60.4704 176.236L33.6974 161.143V130.957L60.4704 116.017L87.2433 130.957V161.143Z" fill="#EC2227"/>
<path d="M144.898 161.143L118.125 176.236L91.3521 161.143V130.957L118.125 116.017L144.898 130.957V161.143Z" fill="#EC2227"/>
<path d="M173.346 112.662L146.573 127.755L119.8 112.662V82.629L146.573 67.5361L173.346 82.629V112.662Z" fill="#F15C27"/>
<path d="M116.298 112.662L89.5253 127.755L62.7523 112.662V82.629L89.5253 67.5361L116.298 82.629V112.662Z" fill="#F15C27"/>
<path d="M59.1022 112.662L32.3292 127.755L5.55615 112.662V82.629L32.3292 67.5361L59.1022 82.629V112.662Z" fill="#F15C27"/>
<path d="M87.2433 64.3349L60.4704 79.4277L33.6974 64.3349V34.3017L60.4704 19.2088L87.2433 34.3017V64.3349Z" fill="#F79421"/>
<path d="M144.898 64.3349L118.125 79.4277L91.3521 64.3349V34.3017L118.125 19.2088L144.898 34.3017V64.3349Z" fill="#F79421"/>
<path d="M87.8501 0C80.3963 0 73.5509 6.86039 67.9225 19.9713L72.0297 22.1057V21.9532C76.7454 10.6717 82.3738 4.57358 87.8501 4.57358C101.389 4.57358 115.992 43.2966 115.992 100.924C115.992 158.551 101.389 197.274 87.8501 197.274C82.0696 197.274 76.1369 190.261 71.117 177.455C71.117 177.455 71.117 177.303 70.9649 177.303L66.8577 179.437C72.6382 194.225 79.9399 202 87.698 202C108.234 202 120.404 150.623 120.404 101.076C120.404 51.5291 108.386 0 87.8501 0Z" fill="#B4B4B4"/>
<path d="M3.57813 50.4628C-0.0727285 56.8658 2.36118 66.3179 11.032 77.7518L14.835 75.3126C14.835 75.3126 14.835 75.3126 14.6828 75.1602C7.38111 65.4032 4.79509 57.4756 7.53323 52.7496C14.3786 41.0107 54.9945 47.7186 104.89 76.3798C154.785 105.193 180.949 137.056 174.104 148.947C171.214 153.978 162.086 155.655 148.548 153.521H148.396L148.091 158.094C163.76 160.381 174.104 158.094 178.059 151.234C188.251 133.397 150.069 97.2658 107.171 72.416C64.4259 47.7186 13.9222 32.7783 3.57813 50.4628Z" fill="#B4B4B4"/>
<path d="M177.45 50.4615C181.101 57.017 178.363 66.3166 169.692 77.5982L165.889 75.0064C165.889 75.0064 165.889 75.0064 166.041 74.854C173.495 65.2494 176.081 57.3219 173.495 52.5959C166.802 40.7045 126.034 46.9551 75.8346 75.1589C25.6352 103.363 -0.985623 135.073 5.70763 146.964C8.59789 151.995 17.5729 153.825 31.1115 151.843H31.2637L31.4158 156.416C15.7475 158.551 5.40338 156.111 1.6004 149.098C-8.43947 131.262 30.3509 95.4351 73.4007 71.1951C116.755 46.9551 167.41 32.6246 177.45 50.4615Z" fill="#B4B4B4"/>
</g>
<defs>
<clipPath id="clip0">
<rect width="181" height="202" fill="white"/>
</clipPath>
</defs>
</svg>
