<?xml version="1.0" encoding="utf-8"?>
<!-- Generator: Adobe Illustrator 23.0.3, SVG Export Plug-In . SVG Version: 6.00 Build 0)  -->
<svg version="1.1" id="Layer_1" xmlns="http://www.w3.org/2000/svg" xmlns:xlink="http://www.w3.org/1999/xlink" x="0px" y="0px"
	 viewBox="0 0 134.5 43.4" style="enable-background:new 0 0 134.5 43.4;" xml:space="preserve">
<style type="text/css">
	.st0{fill:#F79421;}
	.st1{fill:#F26725;}
	.st2{fill:#EC2227;}
	.st3{clip-path:url(#SVGID_2_);}
	.st4{clip-path:url(#SVGID_4_);fill:#676767;}
	.st5{clip-path:url(#SVGID_6_);fill:#676767;}
	.st6{fill:#676767;}
	.st7{clip-path:url(#SVGID_8_);fill:#676767;}
	.st8{clip-path:url(#SVGID_10_);fill:#676767;}
	.st9{fill:#B4B4B4;}
</style>
<g>
	<polygon class="st0" points="7.3,7.3 7.3,13.8 12.9,17 18.5,13.8 18.5,7.3 12.9,4.1 	"/>
	<polygon class="st0" points="19.5,7.3 19.5,13.8 25.1,17 30.8,13.8 30.8,7.3 25.1,4.1 	"/>
	<polygon class="st1" points="1.2,17.8 1.2,24.3 6.8,27.6 12.4,24.3 12.4,17.8 6.8,14.6 	"/>
	<polygon class="st1" points="13.4,17.8 13.4,24.3 19,27.6 24.7,24.3 24.7,17.8 19,14.6 	"/>
	<polygon class="st1" points="25.6,17.8 25.6,24.3 31.2,27.6 36.9,24.3 36.9,17.8 31.2,14.6 	"/>
	<polygon class="st2" points="7.3,28.2 7.3,34.7 12.9,38 18.5,34.7 18.5,28.2 12.9,25 	"/>
	<polygon class="st2" points="19.5,28.2 19.5,34.7 25.1,38 30.8,34.7 30.8,28.2 25.1,25 	"/>
	<g>
		<g>
			<defs>
				<path id="SVGID_1_" d="M62.5,17.5c0-2.5,1.9-4.4,4.2-4.4c2.3,0,4.1,1.9,4.1,4.4S69,22,66.7,22C64.5,22,62.5,20,62.5,17.5
					 M58.8,16.1V10H55v6.2h-6.8V10h-3.5v15h3.5v-5.8H55V25h3.8v-6.1c0.7,3.7,3.8,6.3,8,6.3c4.6,0,8.1-3.3,8.1-7.7
					c0-1.7-0.5-3.2-1.4-4.4h3.9V25h3.8V13.1h4.5L89.9,25h3.9l2.8-10.4L99.8,25h3.9l5.2-15H105l-3.2,11l-3.2-11h-3.7L92,21l-3.5-11
					l0,0h-4.1H72.3v1.8c-1.4-1.2-3.4-2-5.6-2C62.6,9.9,59.4,12.4,58.8,16.1"/>
			</defs>
			<use xlink:href="#SVGID_1_"  style="overflow:visible;"/>
			<clipPath id="SVGID_2_">
				<use xlink:href="#SVGID_1_"  style="overflow:visible;"/>
			</clipPath>
			<rect x="43" y="8.3" class="st3" width="67.5" height="18.5"/>
		</g>
	</g>
	<path d="M128.5,17.1l5.2-7.1h-4.5l-2.9,4.4l-2.9-4.4H119l4.7,7.3l-3.5,5.3L115.5,10H112l-5.8,15h3.5l1-2.8h5.9l1,2.8h1.2h2.4h2
		l3.2-4.8l3.2,4.8h4.6L128.5,17.1z M111.7,19.3l2-5.5l1.9,5.5H111.7z"/>
	<path d="M113.6,13.8l1.9,5.5h-3.9L113.6,13.8z M129.3,10l-2.9,4.4l-2.9-4.4h-4.4l4.7,7.3l-3.5,5.3L115.5,10H112l-5.8,15h3.5l1-2.8
		h5.9l1,2.8h1.2h2.4h2l3.2-4.8l3.2,4.8h4.6l-5.7-7.8l5.2-7.1h-4.4V10z"/>
	<g>
		<g>
			<defs>
				<path id="SVGID_3_" d="M44.4,30.4c0,1.9,1.5,3.4,3.5,3.4c0.9,0,1.9-0.4,2.6-1.1L49.8,32c-0.5,0.5-1.2,0.8-1.9,0.8
					c-1.3,0-2.4-1-2.4-2.3s1-2.3,2.4-2.3c0.7,0,1.4,0.3,1.9,0.8l0.7-0.8c-0.6-0.6-1.6-1-2.5-1C46,27.1,44.4,28.5,44.4,30.4"/>
			</defs>
			<clipPath id="SVGID_4_">
				<use xlink:href="#SVGID_3_"  style="overflow:visible;"/>
			</clipPath>
			<rect x="42.8" y="25.5" class="st4" width="9.2" height="9.9"/>
		</g>
	</g>
	<g>
		<g>
			<defs>
				<path id="SVGID_5_" d="M56.8,30.4c0-1.3,1.1-2.3,2.4-2.3c1.3,0,2.4,1,2.4,2.3s-1.1,2.4-2.4,2.4C57.9,32.8,56.8,31.7,56.8,30.4
					 M55.7,30.4c0,1.9,1.5,3.4,3.5,3.4s3.5-1.5,3.5-3.4S61.2,27,59.2,27C57.2,27.1,55.7,28.5,55.7,30.4"/>
			</defs>
			<clipPath id="SVGID_6_">
				<use xlink:href="#SVGID_5_"  style="overflow:visible;"/>
			</clipPath>
			<rect x="54" y="25.5" class="st5" width="10.3" height="9.9"/>
		</g>
	</g>
	<polygon class="st6" points="74.6,33.7 74.6,28.8 72.5,33 71.8,33 69.7,28.8 69.7,33.7 68.6,33.7 68.6,27.1 70,27.1 72.2,31.5 
		74.3,27.1 75.7,27.1 75.7,33.7 	"/>
	<polygon class="st6" points="74.3,27.1 72.2,31.5 70,27.1 68.6,27.1 68.6,33.7 69.7,33.7 69.7,28.8 71.8,33 72.5,33 74.6,28.8 
		74.6,33.7 75.7,33.7 75.7,27.1 	"/>
	<polygon class="st6" points="88.1,33.7 88.1,28.8 86,33 85.3,33 83.2,28.8 83.2,33.7 82.2,33.7 82.2,27.1 83.5,27.1 85.7,31.5 
		87.9,27.1 89.2,27.1 89.2,33.7 	"/>
	<polygon class="st6" points="87.9,27.1 85.7,31.5 83.5,27.1 82.2,27.1 82.2,33.7 83.2,33.7 83.2,28.8 85.3,33 86,33 88.1,28.8 
		88.1,33.7 89.2,33.7 89.2,27.1 	"/>
	<polygon class="st6" points="96.8,28.1 96.8,29.9 100,29.9 100,30.9 96.8,30.9 96.8,32.7 100.5,32.7 100.5,33.7 95.7,33.7 
		95.7,27.1 100.4,27.1 100.4,28.1 	"/>
	<polygon class="st6" points="95.7,27.1 95.7,33.7 100.5,33.7 100.5,32.7 96.8,32.7 96.8,30.9 100,30.9 100,29.9 96.8,29.9 
		96.8,28.1 100.4,28.1 100.4,27.1 	"/>
	<g>
		<g>
			<defs>
				<path id="SVGID_7_" d="M107.8,28.1h1.6c1,0,1.6,0.4,1.6,1.3s-0.6,1.3-1.6,1.3h-1.6V28.1z M106.6,27.1v6.6h1.1v-2h1.6
					c0.1,0,0.2,0,0.3,0l1.2,2h1.3l-1.5-2.2c0.9-0.3,1.4-1.1,1.4-2.2c0-1.4-1-2.3-2.7-2.3h-2.7V27.1z"/>
			</defs>
			<clipPath id="SVGID_8_">
				<use xlink:href="#SVGID_7_"  style="overflow:visible;"/>
			</clipPath>
			<rect x="105" y="25.5" class="st7" width="8.7" height="9.9"/>
		</g>
	</g>
	<g>
		<g>
			<defs>
				<path id="SVGID_9_" d="M117.7,30.4c0,1.9,1.5,3.4,3.5,3.4c0.9,0,1.9-0.4,2.6-1.1l-0.7-0.7c-0.5,0.5-1.2,0.8-1.9,0.8
					c-1.3,0-2.4-1-2.4-2.3s1-2.3,2.4-2.3c0.7,0,1.4,0.3,1.9,0.8l0.7-0.8c-0.6-0.6-1.6-1-2.5-1C119.2,27.1,117.7,28.5,117.7,30.4"/>
			</defs>
			<clipPath id="SVGID_10_">
				<use xlink:href="#SVGID_9_"  style="overflow:visible;"/>
			</clipPath>
			<rect x="116.1" y="25.5" class="st8" width="9.2" height="9.9"/>
		</g>
	</g>
	<polygon class="st6" points="130.7,28.1 130.7,29.9 134,29.9 134,30.9 130.7,30.9 130.7,32.7 134.5,32.7 134.5,33.7 129.6,33.7 
		129.6,27.1 134.4,27.1 134.4,28.1 	"/>
	<polygon class="st6" points="129.6,27.1 129.6,33.7 134.5,33.7 134.5,32.7 130.7,32.7 130.7,30.9 134,30.9 134,29.9 130.7,29.9 
		130.7,28.1 134.4,28.1 134.4,27.1 	"/>
	<g>
		<path class="st9" d="M24.5,6.6C23.2,2.3,21.3,0,19.2,0c-1.7,0-3.2,1.4-4.4,4.2l1.1,0.6c1-2.2,2.2-3.5,3.3-3.5c1.4,0,3,2.1,4.1,5.7
			c1.2,3.9,1.9,9.1,1.9,14.7s-0.7,10.8-1.9,14.7c-1.1,3.6-2.7,5.7-4.1,5.7c-1.3,0-2.6-1.7-3.7-4.7l-1.1,0.7c1.3,3.5,3,5.3,4.9,5.3
			c2.1,0,4-2.3,5.3-6.6c1.3-4,2-9.4,2-15.1C26.5,16,25.8,10.7,24.5,6.6"/>
		<path class="st9" d="M34.9,24.6c-2.9-3.1-7.1-6.4-12.1-9.3c-4.9-2.8-9.9-4.9-14.1-5.8c-4.4-1-7.3-0.5-8.4,1.3
			c-0.8,1.4-0.4,3.4,1.3,5.8L2.8,16c-1.3-2-1.8-3.6-1.3-4.5c0.7-1.2,3.3-1.5,7-0.7c4,0.9,8.9,2.9,13.7,5.7s9,6,11.8,9
			c2.5,2.8,3.6,5.2,2.9,6.4c-0.6,1.1-2.6,1.4-5.5,1v1.3c0.8,0.1,1.6,0.2,2.2,0.2c2.2,0,3.7-0.6,4.4-1.8C39.1,30.7,38,28,34.9,24.6"
			/>
		<path class="st9" d="M6.5,33c-2.6,0.3-4.4,0-4.9-1c-0.7-1.2,0.4-3.6,2.9-6.4c2.8-3,7-6.2,11.8-9S26,11.8,30,10.9
			c1.4-0.3,2.7-0.5,3.7-0.5c1.7,0,2.8,0.4,3.3,1.2c0.6,1,0,2.7-1.5,4.7l1.1,0.7c1.8-2.5,2.3-4.5,1.5-6c-1.1-1.8-4-2.3-8.4-1.3
			c-4.1,0.9-9.1,3-14.1,5.8c-4.9,2.8-9.2,6.1-12.1,9.3c-3.1,3.4-4.1,6.1-3.1,7.9c0.7,1.2,2.2,1.8,4.4,1.8c0.5,0,1.1,0,1.7-0.1
			C6.5,34.4,6.5,33,6.5,33z"/>
	</g>
</g>
</svg>
