<svg width="1924" height="609" viewBox="0 0 1924 609" fill="none" xmlns="http://www.w3.org/2000/svg">
<path d="M659.726 480.306C651.913 476.169 645.479 470.194 641.343 462.38C636.748 455.026 634.45 446.294 634.45 437.101C634.45 427.449 636.748 419.176 641.343 411.822C645.939 404.468 651.913 398.493 659.726 393.897C667.539 389.76 676.271 387.462 685.922 387.462C693.734 387.462 701.087 388.841 707.521 391.599C713.955 394.356 719.47 398.493 724.066 403.549L712.577 414.58C705.683 407.226 696.951 403.089 686.841 403.089C680.407 403.089 674.432 404.468 668.917 407.226C663.862 409.983 659.726 414.12 656.509 419.176C653.752 424.232 651.913 430.207 651.913 436.642C651.913 443.076 653.292 449.051 656.509 454.107C659.266 459.163 663.403 463.3 668.917 466.057C673.973 468.815 679.947 470.194 686.841 470.194C696.951 470.194 705.683 466.517 712.577 458.703L724.066 469.734C719.47 474.79 713.955 478.927 707.521 481.685C701.087 484.442 693.734 485.821 685.922 485.821C676.271 486.74 667.539 484.442 659.726 480.306Z" fill="#676767"/>
<path d="M821.034 480.306C813.221 476.169 806.787 470.194 802.651 462.38C798.055 454.567 795.757 446.294 795.757 437.101C795.757 427.909 798.055 419.176 802.651 411.822C807.247 404.468 813.221 398.493 821.034 393.897C828.846 389.76 837.578 387.462 847.689 387.462C857.799 387.462 866.531 389.76 874.344 393.897C882.156 398.033 888.59 404.008 893.186 411.822C897.782 419.176 900.08 427.909 900.08 437.101C900.08 446.753 897.782 455.027 893.186 462.38C888.59 469.734 882.616 475.71 874.344 480.306C866.531 484.442 857.799 486.741 847.689 486.741C837.578 486.741 828.846 484.442 821.034 480.306ZM864.693 466.517C869.748 463.759 873.884 459.623 876.641 454.567C879.399 449.511 881.237 443.536 881.237 437.101C881.237 430.667 879.858 424.691 876.641 419.636C873.424 414.58 869.748 410.443 864.693 407.685C859.638 404.928 853.663 403.549 847.229 403.549C840.795 403.549 834.821 404.928 829.766 407.685C824.71 410.443 820.574 414.58 817.817 419.636C815.059 424.691 813.221 430.667 813.221 437.101C813.221 443.536 814.6 449.511 817.817 454.567C820.574 459.623 824.71 463.759 829.766 466.517C834.821 469.275 840.795 470.654 847.229 470.654C853.663 470.654 859.638 469.275 864.693 466.517Z" fill="#676767"/>
<path d="M1069.67 485.362V421.474L1037.96 474.331H1030.14L998.433 422.394V485.362H981.429V388.841H996.135L1034.28 452.729L1071.96 388.841H1086.67V485.362H1069.67Z" fill="#676767"/>
<path d="M1264.06 485.362V421.474L1232.35 474.331H1224.54L1192.83 422.394V485.362H1175.82V388.841H1190.53L1228.67 452.729L1266.36 388.841H1281.06V485.362H1264.06Z" fill="#676767"/>
<path d="M1442.37 470.194V485.362H1369.76V388.841H1440.07V404.009H1387.68V429.288H1434.1V443.996H1387.68V470.654H1442.37V470.194Z" fill="#676767"/>
<path d="M1588.06 485.363L1568.3 456.867C1567.38 456.867 1566.46 456.867 1564.62 456.867H1543.02V484.903H1525.1V388.383H1564.62C1572.9 388.383 1580.25 389.762 1586.68 392.519C1593.12 395.277 1597.71 399.414 1600.93 404.469C1604.15 409.525 1605.99 415.5 1605.99 422.854C1605.99 430.208 1604.15 436.183 1600.47 441.699C1596.79 446.755 1591.74 450.891 1585.31 453.19L1607.36 484.903H1588.06V485.363ZM1581.63 408.606C1577.49 405.389 1571.52 403.55 1563.71 403.55H1542.57V442.159H1563.71C1571.52 442.159 1577.49 440.32 1581.63 437.103C1585.76 433.885 1587.6 428.829 1587.6 422.854C1587.6 416.879 1585.76 412.283 1581.63 408.606Z" fill="#676767"/>
<path d="M1706.62 480.306C1698.81 476.169 1692.83 470.194 1688.24 462.38C1683.64 455.027 1681.34 446.294 1681.34 437.101C1681.34 427.449 1683.64 419.176 1688.24 411.822C1692.83 404.468 1698.81 398.493 1706.62 393.897C1714.43 389.76 1723.16 387.462 1732.82 387.462C1740.63 387.462 1747.98 388.841 1754.42 391.599C1760.85 394.356 1766.36 398.493 1770.96 403.549L1759.47 414.58C1752.58 407.226 1743.85 403.089 1733.73 403.089C1727.3 403.089 1721.33 404.468 1715.81 407.226C1710.76 409.983 1706.62 414.12 1703.4 419.176C1700.65 424.232 1698.81 430.207 1698.81 436.642C1698.81 443.076 1700.19 449.051 1703.4 454.107C1706.16 459.163 1710.3 463.3 1715.81 466.058C1720.87 468.815 1726.84 470.194 1733.73 470.194C1743.85 470.194 1752.58 466.517 1759.47 458.704L1770.96 469.734C1766.36 474.79 1760.85 478.927 1754.42 481.685C1747.98 484.442 1740.63 485.821 1732.82 485.821C1723.62 486.741 1714.89 484.442 1706.62 480.306Z" fill="#676767"/>
<path d="M1924 470.194V485.362H1851.39V388.841H1921.7V404.009H1869.31V429.288H1916.19V443.996H1869.77V470.654H1924V470.194Z" fill="#676767"/>
<path d="M263.571 485.822L182.687 531.325L101.802 485.822V394.817L182.687 349.774L263.571 394.817V485.822Z" fill="#EC2227"/>
<path d="M437.752 485.822L356.868 531.325L275.984 485.822V394.817L356.868 349.774L437.752 394.817V485.822Z" fill="#EC2227"/>
<path d="M523.694 339.661L442.81 385.164L361.926 339.661V249.116L442.81 203.613L523.694 249.116V339.661Z" fill="#F15C27"/>
<path d="M351.349 339.661L270.465 385.164L189.581 339.661V249.116L270.465 203.613L351.349 249.116V339.661Z" fill="#F15C27"/>
<path d="M178.552 339.661L97.6676 385.164L16.7834 339.661V249.116L97.6676 203.613L178.552 249.116V339.661Z" fill="#F15C27"/>
<path d="M263.571 193.961L182.687 239.463L101.802 193.961V103.415L182.687 57.9124L263.571 103.415V193.961Z" fill="#F79421"/>
<path d="M437.752 193.961L356.868 239.463L275.984 193.961V103.415L356.868 57.9124L437.752 103.415V193.961Z" fill="#F79421"/>
<path d="M265.405 0C242.886 0 222.205 20.683 205.201 60.2106L217.61 66.6453V66.1858C231.856 32.1737 248.86 13.7887 265.405 13.7887C306.307 13.7887 350.425 130.533 350.425 304.27C350.425 478.008 306.307 594.752 265.405 594.752C247.941 594.752 230.018 573.609 214.852 535.001C214.852 535.001 214.852 534.541 214.393 534.541L201.984 540.976C219.448 585.559 241.507 609 264.945 609C326.987 609 363.753 454.107 363.753 304.73C363.753 155.353 327.447 0 265.405 0Z" fill="#B4B4B4"/>
<path d="M10.8072 152.137C-0.222453 171.441 7.13066 199.937 33.3261 234.409L44.8153 227.055C44.8153 227.055 44.8153 227.055 44.3557 226.596C22.2964 197.18 14.4838 173.279 22.756 159.031C43.4366 123.64 166.142 143.863 316.88 230.272C467.619 317.141 546.665 413.202 525.984 449.053C517.252 464.22 489.678 469.276 448.777 462.842H448.317L447.398 476.63C494.734 483.525 525.984 476.63 537.933 455.947C568.724 402.171 453.372 293.241 323.774 218.322C194.635 143.863 42.0579 98.8204 10.8072 152.137Z" fill="#B4B4B4"/>
<path d="M536.097 152.134C547.127 171.898 538.854 199.935 512.659 233.947L501.17 226.134C501.17 226.134 501.17 226.134 501.629 225.674C524.148 196.718 531.961 172.817 524.148 158.569C503.927 122.718 380.763 141.563 229.105 226.593C77.4469 311.623 -2.97768 407.225 17.2434 443.076C25.9752 458.243 53.0898 463.758 93.9914 457.783H94.451L94.9105 471.572C47.5749 478.007 16.3242 470.653 4.83498 449.51C-25.4966 395.734 91.6936 287.723 221.752 214.643C352.729 141.563 505.765 98.3585 536.097 152.134Z" fill="#B4B4B4"/>
<path d="M843.096 142.026V357.129H788.867V274.397H692.357V357.129H641.345V142.026H692.357V230.733H788.867V142.485H843.096V142.026Z" fill="black"/>
<path d="M899.16 344.719C881.696 335.526 867.909 322.197 858.258 305.651C848.148 289.104 843.552 270.26 843.552 249.577C843.552 228.894 848.607 210.049 858.258 193.503C868.369 176.956 881.696 164.087 899.16 154.435C916.624 145.242 935.925 140.187 957.985 140.187C979.584 140.187 999.346 144.783 1016.81 154.435C1034.27 163.627 1048.06 176.956 1057.71 193.503C1067.82 210.049 1072.42 228.894 1072.42 249.577C1072.42 270.26 1067.36 289.104 1057.71 305.651C1047.6 322.197 1034.27 335.067 1016.81 344.719C999.346 353.911 980.044 358.967 957.985 358.967C935.925 358.967 916.164 354.371 899.16 344.719ZM986.018 302.433C994.291 297.378 1001.18 290.483 1006.24 281.291C1011.29 272.098 1013.59 261.527 1013.59 250.036C1013.59 238.086 1011.29 227.974 1006.24 218.782C1001.18 209.59 994.75 202.695 986.018 197.639C977.746 192.584 968.095 190.286 957.525 190.286C946.955 190.286 937.764 192.584 929.032 197.639C920.76 202.695 913.866 209.59 908.811 218.782C903.755 227.974 901.458 238.546 901.458 250.036C901.458 261.987 903.755 272.098 908.811 281.291C913.866 290.483 920.3 297.378 929.032 302.433C937.304 307.489 946.955 309.787 957.525 309.787C968.095 309.787 977.746 307.489 986.018 302.433Z" fill="black"/>
<path d="M1106.89 186.609H1035.66V142.945L1224.54 142.026V186.609H1162.96V356.669L1106.89 357.129V186.609V186.609Z" fill="black"/>
<path d="M1558.19 142.026L1483.74 357.129H1426.75L1384.01 210.05L1343.57 357.129H1287.96L1208.45 142.026H1267.28L1316.91 300.595L1357.81 142.026H1411.58L1457.54 300.595L1503.04 142.026H1558.19Z" fill="black"/>
<path d="M1667.1 317.601H1583.46L1569.68 357.129H1518.2L1600.47 142.026H1652.86L1731.9 357.129H1680.43L1667.1 317.601ZM1652.86 276.695L1625.28 199.019L1597.71 276.695H1652.86Z" fill="black"/>
<path d="M1852.77 357.13L1807.27 289.566L1760.85 357.13H1699.73L1770.5 247.28L1703.41 142.486H1767.29L1807.73 205.455L1849.09 142.486H1913.89L1838.98 245.442L1918.94 357.13H1852.77Z" fill="black"/>
</svg>
